# xmcd
#
# Track frame offsets:
#	150
#	12560
#	26691
#	44092
#	59904
#	77607
#	91515
#	111964
#	128519
#	147705
#	165748
#	180769
#
# Disc length: 2718 seconds
#
# Revision: 0
# Processed by: cddbd v1.5.2PL0 Copyright (c) Steve Scherf et al.
# Submitted via: dBpowerAMP V4.0
#
DISCID=9f0a9c0c
DTITLE=Jeff and Sheri Easter - Life Is Great and Gettin' Better!
DYEAR=2006
DGENRE=Christian
TTITLE0=Life is Great and Getting Better
TTITLE1=Livin' in the Rain
TTITLE2=Over and Over
TTITLE3=Joshua's Song
TTITLE4=Feelin' Alright, Doin' Okay
TTITLE5=I Wouldn't Change You If I Could
TTITLE6=All the Days that End in Why
TTITLE7=A Lullaby
TTITLE8=Come See Me
TTITLE9=Daddy Hung the Moon
TTITLE10=Old Chunk of Coal
TTITLE11=Dance
EXTD=Other band members - Charlotte (vocals) and Greg Ritchie (drums)
EXTT0=
EXTT1=
EXTT2=
EXTT3=
EXTT4=
EXTT5=
EXTT6=
EXTT7=
EXTT8=
EXTT9=
EXTT10=
EXTT11=
PLAYORDER=
